<svg width="132" height="90" viewBox="0 0 132 90" fill="none" xmlns="http://www.w3.org/2000/svg">
<path d="M104 37.5C104 58.2107 86.763 75 65.5 75C44.237 75 27 58.2107 27 37.5C27 16.7893 44.237 0 65.5 0C86.763 0 104 16.7893 104 37.5Z" fill="white"/>
<path d="M132 63.5C132 78.1355 119.912 90 105 90C90.0883 90 78 78.1355 78 63.5C78 48.8645 90.0883 37 105 37C119.912 37 132 48.8645 132 63.5Z" fill="white"/>
<path d="M54 63.5C54 78.1355 41.9117 90 27 90C12.0883 90 0 78.1355 0 63.5C0 48.8645 12.0883 37 27 37C41.9117 37 54 48.8645 54 63.5Z" fill="white"/>
<path d="M27 57H106V90H27V57Z" fill="white"/>
<path d="M90.7576 66.6667C90.7576 75.8714 79.5274 83.3333 65.6742 83.3333C51.8211 83.3333 40.5909 75.8714 40.5909 66.6667C40.5909 57.4619 51.8211 50 65.6742 50C79.5274 50 90.7576 57.4619 90.7576 66.6667Z" fill="#7ECCFF"/>
<path d="M109 78.2222C109 84.7269 101.124 90 91.4091 90C81.6939 90 73.8182 84.7269 73.8182 78.2222C73.8182 71.7175 81.6939 66.4444 91.4091 66.4444C101.124 66.4444 109 71.7175 109 78.2222Z" fill="#7ECCFF"/>
<path d="M58.1818 78.2222C58.1818 84.7269 50.3061 90 40.5909 90C30.8757 90 23 84.7269 23 78.2222C23 71.7175 30.8757 66.4444 40.5909 66.4444C50.3061 66.4444 58.1818 71.7175 58.1818 78.2222Z" fill="#7ECCFF"/>
<path d="M40.5909 75.3333H92.0606V90H40.5909L40.5909 75.3333Z" fill="#7ECCFF"/>
</svg>
