<svg width="84" height="86" viewBox="0 0 84 86" fill="none" xmlns="http://www.w3.org/2000/svg">
<path d="M82 38.5C82 58.6584 64.0914 75 42 75C19.9086 75 2 58.6584 2 38.5C2 18.3416 19.9086 2 42 2C64.0914 2 82 18.3416 82 38.5Z" fill="white"/>
<path d="M7.87816 83.422C7.11468 83.9568 6.09929 83.2482 6.33773 82.3471L11 61.5684C13.3807 64 13 63.6394 14 64.5662L17.0075 67L19 68.3663L21.7801 70C22.3498 70.3975 23.7751 71 25.5 71.7598L7.87816 83.422Z" fill="white"/>
<path d="M24 40.5C24 42.433 22.433 44 20.5 44C18.567 44 17 42.433 17 40.5C17 38.567 18.567 37 20.5 37C22.433 37 24 38.567 24 40.5Z" fill="#2D8586"/>
<path d="M68 40.5C68 42.433 66.433 44 64.5 44C62.567 44 61 42.433 61 40.5C61 38.567 62.567 37 64.5 37C66.433 37 68 38.567 68 40.5Z" fill="#2D8586"/>
<path d="M46 40.5C46 42.433 44.433 44 42.5 44C40.567 44 39 42.433 39 40.5C39 38.567 40.567 37 42.5 37C44.433 37 46 38.567 46 40.5Z" fill="#2D8586"/>
<path d="M42 1C64.5555 1 83 17.7051 83 38.5C83 59.2949 64.5555 76 42 76C36.1834 76 30.6412 74.8864 25.6172 72.8809L8.45117 84.2402L8.45215 84.2412C6.93551 85.3035 4.92214 83.9127 5.3623 82.1279L9.91211 61.8467C4.33945 55.4518 1 47.3466 1 38.5C1 17.7051 19.4445 1 42 1Z" stroke="#2D8586" stroke-width="2"/>
</svg>
